<?xml version="1.0" encoding="utf-8"?>
<!-- Generator: Adobe Illustrator 24.1.1, SVG Export Plug-In . SVG Version: 6.00 Build 0)  -->
<svg version="1.1" id="Layer_1" xmlns="http://www.w3.org/2000/svg" xmlns:xlink="http://www.w3.org/1999/xlink" x="0px" y="0px"
	 viewBox="0 0 512 512" style="enable-background:new 0 0 512 512;" xml:space="preserve">
<g>
	<path d="M483.83,28.16C465.06,9.36,442.46,0,416.01,0H95.99C69.54,0,46.94,9.36,28.17,28.16C9.37,46.95-0.01,69.55-0.01,96V416
		c0,26.45,9.39,49.05,28.18,67.85C46.94,502.61,69.54,512,95.99,512h74.68c4.88,0,8.53-0.18,10.99-0.5c2.88-0.58,5.46-2.1,7.33-4.33
		c2.45-2.58,3.68-6.28,3.68-11.16l-0.2-22.67c-0.1-14.47-0.15-25.88-0.15-34.34l-7.68,1.33c-4.86,0.9-11.01,1.28-18.47,1.18
		c-7.78-0.15-15.52-0.93-23.17-2.33c-8.13-1.5-15.79-4.93-22.35-9.99c-6.86-5.21-11.96-12.34-14.67-20.52l-3.33-7.68
		c-2.8-6.06-6.33-11.76-10.49-16.99c-4.78-6.23-9.61-10.41-14.52-12.66l-2.3-1.65l-4.35-4l-3-4.65l1.65-3.85
		c1.8-1.03,5.01-1.5,9.71-1.5l6.66,1.03c4.43,0.88,9.94,3.53,16.47,7.96c6.61,4.5,12.14,10.44,16.17,17.34
		c5.13,9.11,11.29,16.04,18.52,20.85c7.21,4.76,14.49,7.18,21.82,7.18c7.33,0,13.66-0.58,19.02-1.68
		c5.18-1.08,10.21-2.75,14.99-5.03c2-14.87,7.43-26.33,16.32-34.34c-11.51-1.13-22.92-3.13-34.16-5.98
		c-10.94-3.03-21.47-7.38-31.33-13.01c-10.34-5.61-19.45-13.19-26.83-22.32c-7.11-8.91-12.94-20.57-17.52-34.99
		c-4.53-14.47-6.81-31.13-6.81-50.03c0-26.88,8.76-49.78,26.33-68.67c-8.21-20.2-7.43-42.9,2.33-67.97
		c6.46-2.03,16.02-0.53,28.68,4.48s21.92,9.28,27.83,12.81c5.88,3.6,10.61,6.58,14.17,9.03c20.85-5.81,42.37-8.73,63.99-8.68
		c22.02,0,43.35,2.9,64.02,8.68l12.66-8.01c9.74-5.86,20-10.76,30.68-14.67c11.79-4.45,20.75-5.66,27-3.65
		c9.99,25.1,10.86,47.78,2.63,68c17.57,18.87,26.35,41.77,26.35,68.67c0,18.9-2.28,35.61-6.83,50.15
		c-4.55,14.57-10.44,26.2-17.67,35.01c-7.23,8.78-16.22,16.14-26.98,22.15s-21.22,10.34-31.36,13.01
		c-11.21,2.85-22.62,4.88-34.16,6.01c11.54,10.01,17.34,25.75,17.34,47.33v79.69c0,3.78,0.53,6.83,1.65,9.16
		c1.05,2.25,2.98,4,5.33,4.83c2.45,0.88,4.6,1.45,6.51,1.65c1.9,0.25,4.63,0.33,8.16,0.33h74.68c26.45,0,49.05-9.39,67.82-28.16
		s28.18-41.39,28.18-67.85V96c0-26.45-9.41-49.05-28.21-67.85H483.83z"/>
</g>
</svg>
